<svg xmlns="http://www.w3.org/2000/svg" width="256" height="256" viewBox="0 0 256 256">
  <defs>
    <linearGradient id="ath" x1="0" y1="0" x2="1" y2="1">
      <stop offset="0" stop-color="#7C6CF0"/>
      <stop offset="1" stop-color="#3B2E8C"/>
    </linearGradient>
  </defs>
  <rect width="256" height="256" rx="56" fill="url(#ath)"/>
  <!-- ear tufts -->
  <path d="M86 66 L108 96 L72 100 Z" fill="#fff"/>
  <path d="M170 66 L148 96 L184 100 Z" fill="#fff"/>
  <!-- head / body -->
  <path d="M128 76 C171 76 194 108 194 150 C194 192 165 214 128 214 C91 214 62 192 62 150 C62 108 85 76 128 76 Z" fill="#fff"/>
  <!-- eye sockets -->
  <circle cx="103" cy="140" r="23" fill="url(#ath)"/>
  <circle cx="153" cy="140" r="23" fill="url(#ath)"/>
  <!-- pupils -->
  <circle cx="103" cy="140" r="9" fill="#fff"/>
  <circle cx="153" cy="140" r="9" fill="#fff"/>
  <!-- beak -->
  <path d="M128 158 L139 173 L117 173 Z" fill="url(#ath)"/>
</svg>
